<mxfile host="app.diagrams.net" modified="2021-08-03T13:10:24.768Z" agent="5.0 (Windows NT 10.0; Win64; x64) AppleWebKit/537.36 (KHTML, like Gecko) Chrome/92.0.4515.107 Safari/537.36" etag="9TMSKZTKlOdanFBpiFj5" version="14.9.3" type="github">
  <diagram id="7Rsvs0vOTl0MpOckWxuK" name="Page-1">
    <mxGraphModel dx="1038" dy="1688" grid="1" gridSize="10" guides="1" tooltips="1" connect="1" arrows="1" fold="1" page="1" pageScale="1" pageWidth="850" pageHeight="1100" math="0" shadow="0">
      <root>
        <mxCell id="0" />
        <mxCell id="1" parent="0" />
        <mxCell id="8x20L6D--5wWEn27smdO-25" style="edgeStyle=orthogonalEdgeStyle;rounded=0;orthogonalLoop=1;jettySize=auto;html=1;exitX=0.5;exitY=1;exitDx=0;exitDy=0;entryX=0.5;entryY=0;entryDx=0;entryDy=0;" parent="1" source="sPtuqEH-0CU76L_9MhWu-11" target="sPtuqEH-0CU76L_9MhWu-28" edge="1">
          <mxGeometry relative="1" as="geometry" />
        </mxCell>
        <mxCell id="sPtuqEH-0CU76L_9MhWu-11" value="2018-2010 AGB &lt;br&gt;&lt;br&gt;Stock differencing" style="rounded=0;whiteSpace=wrap;html=1;" parent="1" vertex="1">
          <mxGeometry x="410" y="-618" width="105" height="60" as="geometry" />
        </mxCell>
        <mxCell id="sPtuqEH-0CU76L_9MhWu-19" value="Carbon accounts of four country cases" style="rounded=1;whiteSpace=wrap;html=1;fillColor=#f5f5f5;strokeColor=#666666;fontColor=#333333;" parent="1" vertex="1">
          <mxGeometry x="650" y="-512.5" width="110" height="70" as="geometry" />
        </mxCell>
        <mxCell id="8x20L6D--5wWEn27smdO-17" style="edgeStyle=orthogonalEdgeStyle;rounded=0;orthogonalLoop=1;jettySize=auto;html=1;exitX=1;exitY=0.5;exitDx=0;exitDy=0;entryX=0;entryY=0.5;entryDx=0;entryDy=0;" parent="1" source="sPtuqEH-0CU76L_9MhWu-26" target="sPtuqEH-0CU76L_9MhWu-43" edge="1">
          <mxGeometry relative="1" as="geometry" />
        </mxCell>
        <mxCell id="sPtuqEH-0CU76L_9MhWu-26" value="&lt;b style=&quot;font-family: &amp;#34;helvetica&amp;#34;&quot;&gt;Plot data&lt;br&gt;&lt;br&gt;One time&lt;br&gt;&lt;/b&gt;" style="rounded=1;whiteSpace=wrap;html=1;" parent="1" vertex="1">
          <mxGeometry x="273.75" y="-812.5" width="80" height="60" as="geometry" />
        </mxCell>
        <mxCell id="fktkGCMUGjywHagDH9KK-4" style="edgeStyle=orthogonalEdgeStyle;rounded=0;orthogonalLoop=1;jettySize=auto;html=1;exitX=1;exitY=0.5;exitDx=0;exitDy=0;entryX=0;entryY=0.5;entryDx=0;entryDy=0;" edge="1" parent="1" source="sPtuqEH-0CU76L_9MhWu-28" target="sPtuqEH-0CU76L_9MhWu-19">
          <mxGeometry relative="1" as="geometry" />
        </mxCell>
        <mxCell id="sPtuqEH-0CU76L_9MhWu-28" value="AGB change assessment" style="rounded=1;whiteSpace=wrap;html=1;arcSize=0;" parent="1" vertex="1">
          <mxGeometry x="470" y="-512.5" width="125" height="70" as="geometry" />
        </mxCell>
        <mxCell id="WyV3JQxwRowbb4DdgCYI-16" style="edgeStyle=orthogonalEdgeStyle;rounded=0;orthogonalLoop=1;jettySize=auto;html=1;exitX=0.5;exitY=1;exitDx=0;exitDy=0;entryX=0.5;entryY=0;entryDx=0;entryDy=0;" parent="1" source="sPtuqEH-0CU76L_9MhWu-43" target="WyV3JQxwRowbb4DdgCYI-14" edge="1">
          <mxGeometry relative="1" as="geometry" />
        </mxCell>
        <mxCell id="sPtuqEH-0CU76L_9MhWu-43" value="Global AGB map assessment" style="rounded=0;whiteSpace=wrap;html=1;" parent="1" vertex="1">
          <mxGeometry x="400" y="-810" width="130" height="55" as="geometry" />
        </mxCell>
        <mxCell id="8x20L6D--5wWEn27smdO-10" style="edgeStyle=orthogonalEdgeStyle;rounded=0;orthogonalLoop=1;jettySize=auto;html=1;exitX=1;exitY=0.5;exitDx=0;exitDy=0;entryX=1;entryY=0.5;entryDx=0;entryDy=0;" parent="1" source="WyV3JQxwRowbb4DdgCYI-3" target="8x20L6D--5wWEn27smdO-5" edge="1">
          <mxGeometry relative="1" as="geometry" />
        </mxCell>
        <mxCell id="8x20L6D--5wWEn27smdO-18" style="edgeStyle=orthogonalEdgeStyle;rounded=0;orthogonalLoop=1;jettySize=auto;html=1;exitX=0;exitY=0.5;exitDx=0;exitDy=0;entryX=1;entryY=0.5;entryDx=0;entryDy=0;" parent="1" source="WyV3JQxwRowbb4DdgCYI-3" target="sPtuqEH-0CU76L_9MhWu-43" edge="1">
          <mxGeometry relative="1" as="geometry" />
        </mxCell>
        <mxCell id="WyV3JQxwRowbb4DdgCYI-3" value="&lt;b&gt;Global AGB maps&lt;br&gt;&lt;/b&gt;" style="rounded=1;whiteSpace=wrap;html=1;" parent="1" vertex="1">
          <mxGeometry x="560" y="-812.5" width="90" height="60" as="geometry" />
        </mxCell>
        <mxCell id="8x20L6D--5wWEn27smdO-4" style="edgeStyle=orthogonalEdgeStyle;rounded=0;orthogonalLoop=1;jettySize=auto;html=1;exitX=1;exitY=0.5;exitDx=0;exitDy=0;entryX=0;entryY=0.5;entryDx=0;entryDy=0;" parent="1" source="WyV3JQxwRowbb4DdgCYI-7" target="WyV3JQxwRowbb4DdgCYI-14" edge="1">
          <mxGeometry relative="1" as="geometry" />
        </mxCell>
        <mxCell id="WyV3JQxwRowbb4DdgCYI-7" value="&lt;b&gt;Ecological variables&lt;br&gt;&lt;/b&gt;" style="rounded=1;whiteSpace=wrap;html=1;" parent="1" vertex="1">
          <mxGeometry x="281.25" y="-720" width="65" height="60" as="geometry" />
        </mxCell>
        <mxCell id="WyV3JQxwRowbb4DdgCYI-15" style="edgeStyle=orthogonalEdgeStyle;rounded=0;orthogonalLoop=1;jettySize=auto;html=1;exitX=0.5;exitY=1;exitDx=0;exitDy=0;entryX=0.5;entryY=0;entryDx=0;entryDy=0;" parent="1" source="WyV3JQxwRowbb4DdgCYI-14" target="sPtuqEH-0CU76L_9MhWu-11" edge="1">
          <mxGeometry relative="1" as="geometry" />
        </mxCell>
        <mxCell id="8x20L6D--5wWEn27smdO-8" style="edgeStyle=orthogonalEdgeStyle;rounded=0;orthogonalLoop=1;jettySize=auto;html=1;exitX=1;exitY=0.5;exitDx=0;exitDy=0;entryX=0;entryY=0.5;entryDx=0;entryDy=0;" parent="1" source="WyV3JQxwRowbb4DdgCYI-14" target="8x20L6D--5wWEn27smdO-7" edge="1">
          <mxGeometry relative="1" as="geometry" />
        </mxCell>
        <mxCell id="WyV3JQxwRowbb4DdgCYI-14" value="Spatial uncertainty modelling &lt;br&gt;(bias and precision)" style="rounded=0;whiteSpace=wrap;html=1;" parent="1" vertex="1">
          <mxGeometry x="397.5" y="-720" width="130" height="60" as="geometry" />
        </mxCell>
        <mxCell id="fktkGCMUGjywHagDH9KK-5" style="edgeStyle=orthogonalEdgeStyle;rounded=0;orthogonalLoop=1;jettySize=auto;html=1;exitX=1;exitY=0.5;exitDx=0;exitDy=0;entryX=0;entryY=0.5;entryDx=0;entryDy=0;" edge="1" parent="1" source="8x20L6D--5wWEn27smdO-1" target="sPtuqEH-0CU76L_9MhWu-28">
          <mxGeometry relative="1" as="geometry" />
        </mxCell>
        <mxCell id="8x20L6D--5wWEn27smdO-1" value="&lt;b style=&quot;font-family: &amp;#34;helvetica&amp;#34;&quot;&gt;AGB change reference data&lt;br&gt;&lt;/b&gt;" style="rounded=1;whiteSpace=wrap;html=1;" parent="1" vertex="1">
          <mxGeometry x="290" y="-510" width="87.5" height="65" as="geometry" />
        </mxCell>
        <mxCell id="8x20L6D--5wWEn27smdO-27" style="edgeStyle=orthogonalEdgeStyle;rounded=0;orthogonalLoop=1;jettySize=auto;html=1;exitX=0.5;exitY=1;exitDx=0;exitDy=0;entryX=0.5;entryY=0;entryDx=0;entryDy=0;" parent="1" source="8x20L6D--5wWEn27smdO-5" target="sPtuqEH-0CU76L_9MhWu-28" edge="1">
          <mxGeometry relative="1" as="geometry" />
        </mxCell>
        <mxCell id="8x20L6D--5wWEn27smdO-5" value="2018-2010 AGB&lt;br&gt;&lt;br&gt;Carbon flux modelling" style="rounded=0;whiteSpace=wrap;html=1;" parent="1" vertex="1">
          <mxGeometry x="550" y="-618" width="110" height="60" as="geometry" />
        </mxCell>
        <mxCell id="8x20L6D--5wWEn27smdO-16" style="edgeStyle=orthogonalEdgeStyle;rounded=0;orthogonalLoop=1;jettySize=auto;html=1;exitX=0.5;exitY=1;exitDx=0;exitDy=0;entryX=0.5;entryY=0;entryDx=0;entryDy=0;" parent="1" source="8x20L6D--5wWEn27smdO-7" target="8x20L6D--5wWEn27smdO-5" edge="1">
          <mxGeometry relative="1" as="geometry" />
        </mxCell>
        <mxCell id="8x20L6D--5wWEn27smdO-7" value="&lt;b&gt;Bias-adjusted maps&lt;br&gt;&lt;/b&gt;" style="rounded=1;whiteSpace=wrap;html=1;" parent="1" vertex="1">
          <mxGeometry x="572.5" y="-720" width="65" height="60" as="geometry" />
        </mxCell>
        <mxCell id="8x20L6D--5wWEn27smdO-21" value="2010 map" style="text;html=1;align=center;verticalAlign=middle;whiteSpace=wrap;rounded=0;rotation=90;" parent="1" vertex="1">
          <mxGeometry x="660" y="-690" width="70" height="20" as="geometry" />
        </mxCell>
        <mxCell id="8x20L6D--5wWEn27smdO-22" value="&lt;b&gt;Input&lt;br&gt;&lt;/b&gt;" style="rounded=1;whiteSpace=wrap;html=1;" parent="1" vertex="1">
          <mxGeometry x="740" y="-740" width="80" height="42.5" as="geometry" />
        </mxCell>
        <mxCell id="8x20L6D--5wWEn27smdO-23" value="Step" style="rounded=0;whiteSpace=wrap;html=1;" parent="1" vertex="1">
          <mxGeometry x="740" y="-687.5" width="80" height="40" as="geometry" />
        </mxCell>
        <mxCell id="8x20L6D--5wWEn27smdO-31" value="Output" style="rounded=1;whiteSpace=wrap;html=1;fillColor=#f5f5f5;strokeColor=#666666;fontColor=#333333;" parent="1" vertex="1">
          <mxGeometry x="740" y="-637.5" width="80" height="38" as="geometry" />
        </mxCell>
        <mxCell id="fktkGCMUGjywHagDH9KK-6" style="edgeStyle=orthogonalEdgeStyle;rounded=0;orthogonalLoop=1;jettySize=auto;html=1;exitX=0.5;exitY=1;exitDx=0;exitDy=0;entryX=0.5;entryY=0;entryDx=0;entryDy=0;" edge="1" parent="1" source="fktkGCMUGjywHagDH9KK-2" target="8x20L6D--5wWEn27smdO-1">
          <mxGeometry relative="1" as="geometry" />
        </mxCell>
        <mxCell id="fktkGCMUGjywHagDH9KK-7" style="edgeStyle=orthogonalEdgeStyle;rounded=0;orthogonalLoop=1;jettySize=auto;html=1;exitX=0;exitY=0.5;exitDx=0;exitDy=0;entryX=0;entryY=0.5;entryDx=0;entryDy=0;" edge="1" parent="1" source="fktkGCMUGjywHagDH9KK-2" target="sPtuqEH-0CU76L_9MhWu-26">
          <mxGeometry relative="1" as="geometry" />
        </mxCell>
        <mxCell id="fktkGCMUGjywHagDH9KK-2" value="Quality check and pre-processing" style="rounded=1;whiteSpace=wrap;html=1;arcSize=0;" vertex="1" parent="1">
          <mxGeometry x="282.5" y="-613.25" width="102.5" height="50.5" as="geometry" />
        </mxCell>
      </root>
    </mxGraphModel>
  </diagram>
</mxfile>
